<svg width="936" height="847" viewBox="0 0 702 635.25" xmlns="http://www.w3.org/2000/svg" xmlns:xlink="http://www.w3.org/1999/xlink">
<g id="graph0" class="graph" transform="translate(121.96499633789062, 486.4250183105469)">
<polygon fill="white" stroke="transparent" points="-4,4 -4,-413.6 515.59,-413.6 515.59,4 -4,4"/>
<!-- QueryTable2 -->
<g id="node1" class="node">
<title style="">QueryTable2</title>
<g id="a_node1"><a xlink:title="State: completed&#10;StartAt: 2022-12-12T12:00:32.254054-08:00&#10;Duration: 13.207µs" style="">
<polygon fill="green" stroke="black" points="219.17,-162 183.35,-180 111.71,-180 75.89,-162 111.71,-144 183.35,-144 219.17,-162" style=""/>
<text text-anchor="middle" x="147.53" y="-157.8" font-family="Times,serif" font-size="14.00" style="">QueryTable2</text>
</a>
</g>
</g>
<!-- Summarize -->
<g id="node8" class="node">
<title style="">Summarize</title>
<g id="a_node8"><a xlink:title="State: completed&#10;StartAt: 2022-12-12T12:00:32.254121-08:00&#10;Duration: 7.88µs" style="">
<polygon fill="green" stroke="black" points="291.09,-90 259.31,-108 195.76,-108 163.98,-90 195.76,-72 259.31,-72 291.09,-90" style=""/>
<text text-anchor="middle" x="227.53" y="-85.8" font-family="Times,serif" font-size="14.00" style="">Summarize</text>
</a>
</g>
</g>
<!-- QueryTable2&#45;&gt;Summarize -->
<g id="edge6" class="edge">
<title style="">QueryTable2-&gt;Summarize</title>
<g id="a_edge6"><a xlink:title="Time: 2022-12-12T12:00:32.254121-08:00" style="">
<path fill="none" stroke="green" stroke-width="2" d="M167.31,-143.7C177.29,-134.97 189.54,-124.24 200.39,-114.75" style=""/>
<polygon fill="green" stroke="green" stroke-width="2" points="202.76,-117.32 207.98,-108.1 198.15,-112.06 202.76,-117.32" style=""/>
</a>
</g>
</g>
<!-- QueryTable1 -->
<g id="node2" class="node">
<title style="">QueryTable1</title>
<g id="a_node2"><a xlink:title="State: completed&#10;StartAt: 2022-12-12T12:00:32.254098-08:00&#10;Duration: 11.394µs" style="">
<polygon fill="green" stroke="black" points="380.17,-162 344.35,-180 272.71,-180 236.89,-162 272.71,-144 344.35,-144 380.17,-162" style=""/>
<text text-anchor="middle" x="308.53" y="-157.8" font-family="Times,serif" font-size="14.00" style="">QueryTable1</text>
</a>
</g>
</g>
<!-- QueryTable1&#45;&gt;Summarize -->
<g id="edge5" class="edge">
<title style="">QueryTable1-&gt;Summarize</title>
<g id="a_edge5"><a xlink:title="Time: 2022-12-12T12:00:32.254121-08:00" style="">
<path fill="none" stroke="green" stroke-width="2" d="M288.51,-143.7C278.41,-134.97 266,-124.24 255.02,-114.75" style=""/>
<polygon fill="green" stroke="green" stroke-width="2" points="257.18,-111.99 247.32,-108.1 252.6,-117.29 257.18,-111.99" style=""/>
</a>
</g>
</g>
<!-- EmailNotification -->
<g id="node3" class="node">
<title style="">EmailNotification</title>
<g id="a_node3"><a xlink:title="State: completed&#10;StartAt: 2022-12-12T12:00:32.254143-08:00&#10;Duration: 11.757µs" style="">
<polygon fill="green" stroke="black" points="320.54,-18 274.04,-36 181.03,-36 134.52,-18 181.03,0 274.04,0 320.54,-18" style=""/>
<text text-anchor="middle" x="227.53" y="-13.8" font-family="Times,serif" font-size="14.00" style="">EmailNotification</text>
</a>
</g>
</g>
<!-- sqlSummaryJob -->
<g id="node4" class="node">
<title style="">sqlSummaryJob</title>
<g id="a_node4"><a xlink:title="State: completed&#10;StartAt: 0001-01-01T00:00:00Z&#10;Duration: 0s" style="">
<polygon fill="green" stroke="black" points="148.53,-409.4 1.94,-372.5 295.13,-372.5 148.53,-409.4" style=""/>
<text text-anchor="middle" x="148.53" y="-380.6" font-family="Times,serif" font-size="14.00" style="">sqlSummaryJob</text>
</a>
</g>
</g>
<!-- GetConnection -->
<g id="node5" class="node">
<title style="">GetConnection</title>
<g id="a_node5"><a xlink:title="State: completed&#10;StartAt: 2022-12-12T12:00:32.253844-08:00&#10;Duration: 154.825µs" style="">
<polygon fill="green" stroke="black" points="312.54,-306 272.54,-324 192.53,-324 152.52,-306 192.53,-288 272.54,-288 312.54,-306" style=""/>
<text text-anchor="middle" x="232.53" y="-301.8" font-family="Times,serif" font-size="14.00" style="">GetConnection</text>
</a>
</g>
</g>
<!-- sqlSummaryJob&#45;&gt;GetConnection -->
<g id="edge9" class="edge">
<title style="">sqlSummaryJob-&gt;GetConnection</title>
<g id="a_edge9"><a xlink:title="Time: 2022-12-12T12:00:32.253844-08:00" style="">
<path fill="none" stroke="green" stroke-width="2" d="M160.93,-372.47C172.82,-361.6 191.15,-344.83 206.29,-330.99" style=""/>
<polygon fill="green" stroke="green" stroke-width="2" points="208.85,-333.4 213.87,-324.07 204.13,-328.23 208.85,-333.4" style=""/>
</a>
</g>
</g>
<!-- CheckAuth -->
<g id="node9" class="node">
<title style="">CheckAuth</title>
<g id="a_node9"><a xlink:title="State: completed&#10;StartAt: 2022-12-12T12:00:32.253818-08:00&#10;Duration: 18.52µs" style="">
<polygon fill="green" stroke="black" points="127.1,-234 95.32,-252 31.75,-252 -0.03,-234 31.75,-216 95.32,-216 127.1,-234" style=""/>
<text text-anchor="middle" x="63.53" y="-229.8" font-family="Times,serif" font-size="14.00" style="">CheckAuth</text>
</a>
</g>
</g>
<!-- sqlSummaryJob&#45;&gt;CheckAuth -->
<g id="edge8" class="edge">
<title style="">sqlSummaryJob-&gt;CheckAuth</title>
<g id="a_edge8"><a xlink:title="Time: 2022-12-12T12:00:32.253818-08:00" style="">
<path fill="none" stroke="green" stroke-width="2" d="M141.86,-372.12C128.33,-348.43 97.34,-294.17 78.65,-261.46" style=""/>
<polygon fill="green" stroke="green" stroke-width="2" points="81.5,-259.4 73.5,-252.45 75.42,-262.87 81.5,-259.4" style=""/>
</a>
</g>
</g>
<!-- GetTableClient2 -->
<g id="node6" class="node">
<title style="">GetTableClient2</title>
<g id="a_node6"><a xlink:title="State: completed&#10;StartAt: 2022-12-12T12:00:32.254017-08:00&#10;Duration: 25.793µs" style="">
<polygon fill="green" stroke="black" points="319.65,-234 276.09,-252 188.97,-252 145.41,-234 188.97,-216 276.09,-216 319.65,-234" style=""/>
<text text-anchor="middle" x="232.53" y="-229.8" font-family="Times,serif" font-size="14.00" style="">GetTableClient2</text>
</a>
</g>
</g>
<!-- GetConnection&#45;&gt;GetTableClient2 -->
<g id="edge10" class="edge">
<title style="">GetConnection-&gt;GetTableClient2</title>
<g id="a_edge10"><a xlink:title="Time: 2022-12-12T12:00:32.254017-08:00" style="">
<path fill="none" stroke="green" stroke-width="2" d="M232.53,-287.7C232.53,-279.98 232.53,-270.71 232.53,-262.11" style=""/>
<polygon fill="green" stroke="green" stroke-width="2" points="236.03,-262.1 232.53,-252.1 229.03,-262.1 236.03,-262.1" style=""/>
</a>
</g>
</g>
<!-- GetTableClient1 -->
<g id="node7" class="node">
<title style="">GetTableClient1</title>
<g id="a_node7"><a xlink:title="State: completed&#10;StartAt: 2022-12-12T12:00:32.254076-08:00&#10;Duration: 12.459µs" style="">
<polygon fill="green" stroke="black" points="511.65,-234 468.09,-252 380.97,-252 337.41,-234 380.97,-216 468.09,-216 511.65,-234" style=""/>
<text text-anchor="middle" x="424.53" y="-229.8" font-family="Times,serif" font-size="14.00" style="">GetTableClient1</text>
</a>
</g>
</g>
<!-- GetConnection&#45;&gt;GetTableClient1 -->
<g id="edge11" class="edge">
<title style="">GetConnection-&gt;GetTableClient1</title>
<g id="a_edge11"><a xlink:title="Time: 2022-12-12T12:00:32.254076-08:00" style="">
<path fill="none" stroke="green" stroke-width="2" d="M275.62,-289.29C303.46,-279.14 339.92,-265.85 369.8,-254.96" style=""/>
<polygon fill="green" stroke="green" stroke-width="2" points="371.05,-258.22 379.25,-251.51 368.65,-251.65 371.05,-258.22" style=""/>
</a>
</g>
</g>
<!-- GetTableClient2&#45;&gt;QueryTable2 -->
<g id="edge3" class="edge">
<title style="">GetTableClient2-&gt;QueryTable2</title>
<g id="a_edge3"><a xlink:title="Time: 2022-12-12T12:00:32.254054-08:00" style="">
<path fill="none" stroke="green" stroke-width="2" d="M211.52,-215.7C200.82,-206.88 187.64,-196.03 176.04,-186.47" style=""/>
<polygon fill="green" stroke="green" stroke-width="2" points="178.25,-183.76 168.3,-180.1 173.8,-189.16 178.25,-183.76" style=""/>
</a>
</g>
</g>
<!-- GetTableClient1&#45;&gt;QueryTable1 -->
<g id="edge4" class="edge">
<title style="">GetTableClient1-&gt;QueryTable1</title>
<g id="a_edge4"><a xlink:title="Time: 2022-12-12T12:00:32.254098-08:00" style="">
<path fill="none" stroke="green" stroke-width="2" d="M396.16,-215.88C380.99,-206.72 362.13,-195.34 345.79,-185.48" style=""/>
<polygon fill="green" stroke="green" stroke-width="2" points="347.39,-182.36 337.02,-180.19 343.77,-188.35 347.39,-182.36" style=""/>
</a>
</g>
</g>
<!-- Summarize&#45;&gt;EmailNotification -->
<g id="edge7" class="edge">
<title style="">Summarize-&gt;EmailNotification</title>
<g id="a_edge7"><a xlink:title="Time: 2022-12-12T12:00:32.254143-08:00" style="">
<path fill="none" stroke="green" stroke-width="2" d="M227.53,-71.7C227.53,-63.98 227.53,-54.71 227.53,-46.11" style=""/>
<polygon fill="green" stroke="green" stroke-width="2" points="231.03,-46.1 227.53,-36.1 224.03,-46.1 231.03,-46.1" style=""/>
</a>
</g>
</g>
<!-- CheckAuth&#45;&gt;QueryTable2 -->
<g id="edge1" class="edge">
<title style="">CheckAuth-&gt;QueryTable2</title>
<g id="a_edge1"><a xlink:title="Time: 2022-12-12T12:00:32.254054-08:00" style="">
<path fill="none" stroke="green" stroke-width="2" d="M84.3,-215.7C94.77,-206.97 107.64,-196.24 119.03,-186.75" style=""/>
<polygon fill="green" stroke="green" stroke-width="2" points="121.57,-189.19 127.01,-180.1 117.08,-183.82 121.57,-189.19" style=""/>
</a>
</g>
</g>
<!-- CheckAuth&#45;&gt;QueryTable1 -->
<g id="edge2" class="edge">
<title style="">CheckAuth-&gt;QueryTable1</title>
<g id="a_edge2"><a xlink:title="Time: 2022-12-12T12:00:32.254098-08:00" style="">
<path fill="none" stroke="green" stroke-width="2" d="M104.82,-221.2C145.85,-209.48 209.02,-191.43 254.13,-178.54" style=""/>
<polygon fill="green" stroke="green" stroke-width="2" points="255.1,-181.91 263.76,-175.79 253.18,-175.18 255.1,-181.91" style=""/>
</a>
</g>
</g>
</g>
</svg>