<?xml version="1.0" encoding="UTF-8" standalone="no"?><!DOCTYPE svg PUBLIC "-//W3C//DTD SVG 1.1//EN" "http://www.w3.org/Graphics/SVG/1.1/DTD/svg11.dtd"><!-- Generated by graphviz version 2.40.1 (20161225.0304)
 --><!-- Title: %0 Pages: 1 --><svg xmlns="http://www.w3.org/2000/svg" xmlns:xlink="http://www.w3.org/1999/xlink" width="817pt" height="332pt" viewBox="0.00 0.00 817.42 332.00">
<g id="graph0" class="graph" transform="scale(1 1) rotate(0) translate(4 328)">
<title>%0</title>
<polygon fill="#ffffff" stroke="transparent" points="-4,4 -4,-328 813.4169,-328 813.4169,4 -4,4"/>
<!-- [root] [Start] -->
<g id="node1" class="node">
<title>[root] [Start]</title>
<ellipse fill="none" stroke="#000000" cx="405.2085" cy="-306" rx="60.2051" ry="18"/>
<text text-anchor="middle" x="405.2085" y="-301.8" font-family="Times,serif" font-size="14.00" fill="#000000">[root] [Start]</text>
</g>
<!-- [root] getConnection -->
<g id="node2" class="node">
<title>[root] getConnection</title>
<ellipse fill="none" stroke="#000000" cx="405.2085" cy="-234" rx="91.5165" ry="18"/>
<text text-anchor="middle" x="405.2085" y="-229.8" font-family="Times,serif" font-size="14.00" fill="#000000">[root] getConnection</text>
</g>
<!-- [root] [Start]&#45;&gt;[root] getConnection -->
<g id="edge1" class="edge">
<title>[root] [Start]-&gt;[root] getConnection</title>
<path fill="none" stroke="#000000" d="M405.2085,-287.8314C405.2085,-280.131 405.2085,-270.9743 405.2085,-262.4166"/>
<polygon fill="#000000" stroke="#000000" points="408.7086,-262.4132 405.2085,-252.4133 401.7086,-262.4133 408.7086,-262.4132"/>
</g>
<!-- [root] param_query1 -->
<g id="node3" class="node">
<title>[root] param_query1</title>
<ellipse fill="none" stroke="#000000" cx="91.2085" cy="-162" rx="91.4174" ry="18"/>
<text text-anchor="middle" x="91.2085" y="-157.8" font-family="Times,serif" font-size="14.00" fill="#000000">[root] param_query1</text>
</g>
<!-- [root] [Start]&#45;&gt;[root] param_query1 -->
<g id="edge2" class="edge">
<title>[root] [Start]-&gt;[root] param_query1</title>
<path fill="none" stroke="#000000" d="M345.7561,-302.7925C269.4412,-297.4201 142.9482,-283.8672 110.2085,-252 94.0092,-236.2324 89.9155,-210.3835 89.4928,-190.4236"/>
<polygon fill="#000000" stroke="#000000" points="92.9933,-190.3523 89.5716,-180.3253 85.9935,-190.2976 92.9933,-190.3523"/>
</g>
<!-- [root] param_query2 -->
<g id="node4" class="node">
<title>[root] param_query2</title>
<ellipse fill="none" stroke="#000000" cx="718.2085" cy="-162" rx="91.4174" ry="18"/>
<text text-anchor="middle" x="718.2085" y="-157.8" font-family="Times,serif" font-size="14.00" fill="#000000">[root] param_query2</text>
</g>
<!-- [root] [Start]&#45;&gt;[root] param_query2 -->
<g id="edge3" class="edge">
<title>[root] [Start]-&gt;[root] param_query2</title>
<path fill="none" stroke="#000000" d="M464.7114,-302.8442C541.0829,-297.5296 667.6391,-284.0412 700.2085,-252 716.2882,-236.181 720.0888,-210.3375 720.2733,-190.3928"/>
<polygon fill="#000000" stroke="#000000" points="723.7709,-190.2317 720.0728,-180.3033 716.7723,-190.3709 723.7709,-190.2317"/>
</g>
<!-- [root] param_table1 -->
<g id="node5" class="node">
<title>[root] param_table1</title>
<ellipse fill="none" stroke="#000000" cx="207.2085" cy="-234" rx="87.9815" ry="18"/>
<text text-anchor="middle" x="207.2085" y="-229.8" font-family="Times,serif" font-size="14.00" fill="#000000">[root] param_table1</text>
</g>
<!-- [root] [Start]&#45;&gt;[root] param_table1 -->
<g id="edge4" class="edge">
<title>[root] [Start]-&gt;[root] param_table1</title>
<path fill="none" stroke="#000000" d="M366.562,-291.9468C336.2425,-280.9215 293.7101,-265.4551 260.2118,-253.2739"/>
<polygon fill="#000000" stroke="#000000" points="261.1703,-249.8983 250.5762,-249.7701 258.7781,-256.4769 261.1703,-249.8983"/>
</g>
<!-- [root] param_table2 -->
<g id="node6" class="node">
<title>[root] param_table2</title>
<ellipse fill="none" stroke="#000000" cx="603.2085" cy="-234" rx="87.9815" ry="18"/>
<text text-anchor="middle" x="603.2085" y="-229.8" font-family="Times,serif" font-size="14.00" fill="#000000">[root] param_table2</text>
</g>
<!-- [root] [Start]&#45;&gt;[root] param_table2 -->
<g id="edge5" class="edge">
<title>[root] [Start]-&gt;[root] param_table2</title>
<path fill="none" stroke="#000000" d="M443.8549,-291.9468C474.1745,-280.9215 516.7069,-265.4551 550.2051,-253.2739"/>
<polygon fill="#000000" stroke="#000000" points="551.6389,-256.4769 559.8407,-249.7701 549.2466,-249.8983 551.6389,-256.4769"/>
</g>
<!-- [root] getTableClient1 -->
<g id="node7" class="node">
<title>[root] getTableClient1</title>
<ellipse fill="none" stroke="#000000" cx="298.2085" cy="-162" rx="97.8092" ry="18"/>
<text text-anchor="middle" x="298.2085" y="-157.8" font-family="Times,serif" font-size="14.00" fill="#000000">[root] getTableClient1</text>
</g>
<!-- [root] getConnection&#45;&gt;[root] getTableClient1 -->
<g id="edge6" class="edge">
<title>[root] getConnection-&gt;[root] getTableClient1</title>
<path fill="none" stroke="#000000" d="M379.3067,-216.5708C365.3471,-207.1774 347.9354,-195.4611 332.8278,-185.2953"/>
<polygon fill="#000000" stroke="#000000" points="334.4931,-182.1972 324.2425,-179.5182 330.5851,-188.0048 334.4931,-182.1972"/>
</g>
<!-- [root] getTableClient2 -->
<g id="node8" class="node">
<title>[root] getTableClient2</title>
<ellipse fill="none" stroke="#000000" cx="511.2085" cy="-162" rx="97.8092" ry="18"/>
<text text-anchor="middle" x="511.2085" y="-157.8" font-family="Times,serif" font-size="14.00" fill="#000000">[root] getTableClient2</text>
</g>
<!-- [root] getConnection&#45;&gt;[root] getTableClient2 -->
<g id="edge7" class="edge">
<title>[root] getConnection-&gt;[root] getTableClient2</title>
<path fill="none" stroke="#000000" d="M430.8681,-216.5708C444.6973,-207.1774 461.9463,-195.4611 476.9126,-185.2953"/>
<polygon fill="#000000" stroke="#000000" points="479.1121,-188.0324 485.4177,-179.5182 475.1789,-182.2418 479.1121,-188.0324"/>
</g>
<!-- [root] queryTable1 -->
<g id="node9" class="node">
<title>[root] queryTable1</title>
<ellipse fill="none" stroke="#000000" cx="298.2085" cy="-90" rx="84.473" ry="18"/>
<text text-anchor="middle" x="298.2085" y="-85.8" font-family="Times,serif" font-size="14.00" fill="#000000">[root] queryTable1</text>
</g>
<!-- [root] param_query1&#45;&gt;[root] queryTable1 -->
<g id="edge10" class="edge">
<title>[root] param_query1-&gt;[root] queryTable1</title>
<path fill="none" stroke="#000000" d="M136.3797,-146.2883C168.1035,-135.2539 210.6824,-120.4439 244.2024,-108.7847"/>
<polygon fill="#000000" stroke="#000000" points="245.5498,-112.0218 253.8449,-105.4308 243.2501,-105.4103 245.5498,-112.0218"/>
</g>
<!-- [root] queryTable2 -->
<g id="node10" class="node">
<title>[root] queryTable2</title>
<ellipse fill="none" stroke="#000000" cx="511.2085" cy="-90" rx="84.473" ry="18"/>
<text text-anchor="middle" x="511.2085" y="-85.8" font-family="Times,serif" font-size="14.00" fill="#000000">[root] queryTable2</text>
</g>
<!-- [root] param_query2&#45;&gt;[root] queryTable2 -->
<g id="edge11" class="edge">
<title>[root] param_query2-&gt;[root] queryTable2</title>
<path fill="none" stroke="#000000" d="M673.0372,-146.2883C641.3135,-135.2539 598.7346,-120.4439 565.2145,-108.7847"/>
<polygon fill="#000000" stroke="#000000" points="566.1668,-105.4103 555.572,-105.4308 563.8671,-112.0218 566.1668,-105.4103"/>
</g>
<!-- [root] param_table1&#45;&gt;[root] getTableClient1 -->
<g id="edge12" class="edge">
<title>[root] param_table1-&gt;[root] getTableClient1</title>
<path fill="none" stroke="#000000" d="M229.237,-216.5708C240.801,-207.4213 255.1505,-196.0679 267.7613,-186.0901"/>
<polygon fill="#000000" stroke="#000000" points="270.08,-188.7185 275.7506,-179.7689 265.7366,-183.229 270.08,-188.7185"/>
</g>
<!-- [root] param_table2&#45;&gt;[root] getTableClient2 -->
<g id="edge13" class="edge">
<title>[root] param_table2-&gt;[root] getTableClient2</title>
<path fill="none" stroke="#000000" d="M580.9378,-216.5708C569.2468,-207.4213 554.7396,-196.0679 541.9902,-186.0901"/>
<polygon fill="#000000" stroke="#000000" points="543.9453,-183.1757 533.9131,-179.7689 539.6311,-188.6883 543.9453,-183.1757"/>
</g>
<!-- [root] getTableClient1&#45;&gt;[root] queryTable1 -->
<g id="edge8" class="edge">
<title>[root] getTableClient1-&gt;[root] queryTable1</title>
<path fill="none" stroke="#000000" d="M298.2085,-143.8314C298.2085,-136.131 298.2085,-126.9743 298.2085,-118.4166"/>
<polygon fill="#000000" stroke="#000000" points="301.7086,-118.4132 298.2085,-108.4133 294.7086,-118.4133 301.7086,-118.4132"/>
</g>
<!-- [root] getTableClient2&#45;&gt;[root] queryTable2 -->
<g id="edge9" class="edge">
<title>[root] getTableClient2-&gt;[root] queryTable2</title>
<path fill="none" stroke="#000000" d="M511.2085,-143.8314C511.2085,-136.131 511.2085,-126.9743 511.2085,-118.4166"/>
<polygon fill="#000000" stroke="#000000" points="514.7086,-118.4132 511.2085,-108.4133 507.7086,-118.4133 514.7086,-118.4132"/>
</g>
<!-- [root] summarize -->
<g id="node11" class="node">
<title>[root] summarize</title>
<ellipse fill="none" stroke="#000000" cx="404.2085" cy="-18" rx="77.6059" ry="18"/>
<text text-anchor="middle" x="404.2085" y="-13.8" font-family="Times,serif" font-size="14.00" fill="#000000">[root] summarize</text>
</g>
<!-- [root] queryTable1&#45;&gt;[root] summarize -->
<g id="edge14" class="edge">
<title>[root] queryTable1-&gt;[root] summarize</title>
<path fill="none" stroke="#000000" d="M323.5981,-72.7542C337.6268,-63.2252 355.2363,-51.2641 370.4152,-40.9539"/>
<polygon fill="#000000" stroke="#000000" points="372.7204,-43.6192 379.026,-35.1051 368.7872,-37.8287 372.7204,-43.6192"/>
</g>
<!-- [root] queryTable2&#45;&gt;[root] summarize -->
<g id="edge15" class="edge">
<title>[root] queryTable2-&gt;[root] summarize</title>
<path fill="none" stroke="#000000" d="M485.5793,-72.7542C471.4182,-63.2252 453.6426,-51.2641 438.3205,-40.9539"/>
<polygon fill="#000000" stroke="#000000" points="439.8791,-37.784 429.6285,-35.1051 435.9711,-43.5917 439.8791,-37.784"/>
</g>
</g>
</svg>